<svg width="33" height="33" viewBox="0 0 33 33" fill="none" xmlns="http://www.w3.org/2000/svg">
<path d="M20.1134 7.6C21.4808 7.86679 22.7375 8.53556 23.7227 9.52071C24.7078 10.5059 25.3766 11.7626 25.6434 13.13M20.1134 2C22.9543 2.31561 25.6036 3.58784 27.6261 5.60781C29.6486 7.62778 30.9242 10.2754 31.2434 13.116M29.8434 24.288V28.488C29.8449 28.8779 29.7651 29.2638 29.6089 29.6211C29.4527 29.9783 29.2236 30.299 28.9363 30.5626C28.649 30.8262 28.3098 31.0269 27.9404 31.1518C27.5711 31.2767 27.1797 31.3231 26.7914 31.288C22.4833 30.8199 18.3452 29.3478 14.7094 26.99C11.3267 24.8405 8.45883 21.9726 6.30936 18.59C3.94333 14.9377 2.4709 10.7794 2.01136 6.452C1.97638 6.06485 2.02239 5.67466 2.14646 5.30627C2.27054 4.93788 2.46996 4.59937 2.73204 4.31227C2.99411 4.02517 3.31309 3.79579 3.66867 3.63873C4.02425 3.48167 4.40864 3.40037 4.79736 3.4H8.99736C9.67679 3.39331 10.3355 3.63391 10.8506 4.07695C11.3658 4.51998 11.7023 5.13523 11.7974 5.808C11.9746 7.15209 12.3034 8.47182 12.7774 9.742C12.9657 10.2431 13.0065 10.7877 12.8948 11.3112C12.7832 11.8348 12.5238 12.3154 12.1474 12.696L10.3694 14.474C12.3623 17.979 15.2644 20.881 18.7694 22.874L20.5474 21.096C20.928 20.7196 21.4086 20.4602 21.9321 20.3485C22.4557 20.2369 23.0003 20.2776 23.5014 20.466C24.7715 20.94 26.0913 21.2687 27.4354 21.446C28.1154 21.5419 28.7365 21.8845 29.1805 22.4085C29.6245 22.9325 29.8604 23.6014 29.8434 24.288Z" stroke="#FFEAA7" stroke-width="3" stroke-linecap="round" stroke-linejoin="round"/>
</svg>
